<svg width="18" height="19" viewBox="0 0 18 19" fill="none" xmlns="http://www.w3.org/2000/svg">
<path fill-rule="evenodd" clip-rule="evenodd" d="M2.33537 8.31778C2.33537 5.08363 4.96703 2.4528 8.20117 2.4528C11.4345 2.4528 14.0662 5.08363 14.0662 8.31778C14.0662 11.5519 11.4345 14.1836 8.20117 14.1836C4.96703 14.1836 2.33537 11.5519 2.33537 8.31778ZM17.7478 17.0336L13.9153 13.2111C15.0453 11.8936 15.7328 10.1861 15.7328 8.31778C15.7328 4.1653 12.3537 0.786133 8.20117 0.786133C4.04787 0.786133 0.668701 4.1653 0.668701 8.31778C0.668701 12.4711 4.04787 15.8503 8.20117 15.8503C9.88617 15.8503 11.4387 15.2869 12.6945 14.3478L16.5712 18.2136L17.7478 17.0336Z" fill="#163A34"/>
</svg>
